<svg id="Layer_1" data-name="Layer 1" xmlns="http://www.w3.org/2000/svg" viewBox="0 0 300 70">
  <g>
    <path d="M80.74,127V62.62h28a28.73,28.73,0,0,1,12.62,2.61,19.56,19.56,0,0,1,8.41,7.51,22,22,0,0,1,3,11.75,21,21,0,0,1-3.08,11.66,19.15,19.15,0,0,1-8.64,7.16,32.24,32.24,0,0,1-13,2.42H91.36V92.16h13.16a16.16,16.16,0,0,0,5.3-.77,6.72,6.72,0,0,0,3.39-2.47,7.58,7.58,0,0,0,1.18-4.43A7.87,7.87,0,0,0,113.21,80a7,7,0,0,0-3.39-2.58,15.08,15.08,0,0,0-5.3-.83h-6.2V127Zm38-29.54L134.89,127H115.78L100,97.43Z" transform="translate(-80.74 -57.85)" fill="#111827"/>
    <path d="M162.73,127.85a28.29,28.29,0,0,1-13.4-3,20.59,20.59,0,0,1-8.64-8.55,27.74,27.74,0,0,1-3-13.37,27,27,0,0,1,3-13.07,21.62,21.62,0,0,1,8.57-8.7,26.3,26.3,0,0,1,13.07-3.11,27.82,27.82,0,0,1,10,1.7,21.11,21.11,0,0,1,7.63,4.91,22,22,0,0,1,4.87,7.81,29.43,29.43,0,0,1,1.7,10.34v4h-43.4V97.31h27.34a6.91,6.91,0,0,0-1.06-3.66,7.11,7.11,0,0,0-2.76-2.48,8.3,8.3,0,0,0-3.9-.9,8.44,8.44,0,0,0-3.89.9A7.23,7.23,0,0,0,156,93.63a6.83,6.83,0,0,0-1.12,3.68v10.3a8.65,8.65,0,0,0,1,4.15,7.06,7.06,0,0,0,2.82,2.86,8.88,8.88,0,0,0,4.43,1,10.2,10.2,0,0,0,3.3-.51,7.26,7.26,0,0,0,2.58-1.46,5.76,5.76,0,0,0,1.58-2.31h15.94a17.77,17.77,0,0,1-3.89,8.72,20,20,0,0,1-8.11,5.72A31.48,31.48,0,0,1,162.73,127.85Z" transform="translate(-80.74 -57.85)" fill="#111827"/>
    <path d="M238,94.42H221.94a4.35,4.35,0,0,0-1-2.55,6.05,6.05,0,0,0-2.36-1.65,8.57,8.57,0,0,0-3.18-.58,8.39,8.39,0,0,0-3.86.82,2.47,2.47,0,0,0-1.58,2.32,2.57,2.57,0,0,0,.93,2,7.76,7.76,0,0,0,3.75,1.42l9.87,1.76q7.47,1.35,11.12,4.54a10.83,10.83,0,0,1,3.69,8.53,13.9,13.9,0,0,1-3.09,8.93,19.46,19.46,0,0,1-8.32,5.85,32.81,32.81,0,0,1-12,2.06q-11.13,0-17.41-4.53a16.06,16.06,0,0,1-7-11.94h17.33a4.89,4.89,0,0,0,2.3,3.54,8.93,8.93,0,0,0,4.92,1.24,8.5,8.5,0,0,0,4-.82,2.59,2.59,0,0,0,1.59-2.32,2.56,2.56,0,0,0-1.37-2.2A12.49,12.49,0,0,0,216,109.5L207.39,108q-7.44-1.29-11.13-4.9a12.32,12.32,0,0,1-3.67-9.3,13.41,13.41,0,0,1,2.67-8.53A16.63,16.63,0,0,1,203,79.92a34.86,34.86,0,0,1,12-1.84q10.54,0,16.63,4.34A14.71,14.71,0,0,1,238,94.42Z" transform="translate(-80.74 -57.85)" fill="#111827"/>
    <path d="M245.73,127V62.62h28.09a34.29,34.29,0,0,1,12.45,2,16.4,16.4,0,0,1,7.62,5.59,14.28,14.28,0,0,1,2.58,8.52,13.4,13.4,0,0,1-1.57,6.47,13.84,13.84,0,0,1-4.38,4.89,17.4,17.4,0,0,1-6.58,2.71v.63a16.5,16.5,0,0,1,7.59,2.09,14.66,14.66,0,0,1,5.44,5.31,15.14,15.14,0,0,1,2,7.93,16.44,16.44,0,0,1-2.77,9.4,18.63,18.63,0,0,1-7.86,6.47A28.78,28.78,0,0,1,276.22,127Zm17.59-38.33h7.21a10.57,10.57,0,0,0,4.08-.73,6.21,6.21,0,0,0,2.77-2.09,5.53,5.53,0,0,0,1-3.34,5.31,5.31,0,0,0-2.15-4.57,8.88,8.88,0,0,0-5.44-1.59h-7.46Zm0,24.38h8.22c2.95,0,5.17-.55,6.64-1.65a5.71,5.71,0,0,0,2.22-4.89,6.73,6.73,0,0,0-1-3.83,6.51,6.51,0,0,0-3-2.39,11.8,11.8,0,0,0-4.61-.82h-8.47Z" transform="translate(-80.74 -57.85)" fill="#111827"/>
    <path d="M305.45,127V78.71h17.46V127Zm8.73-53.29a8.64,8.64,0,0,1-6.07-2.32,7.45,7.45,0,0,1,0-11.19,9.13,9.13,0,0,1,12.16,0,7.47,7.47,0,0,1,0,11.19A8.66,8.66,0,0,1,314.18,73.68Z" transform="translate(-80.74 -57.85)" fill="#111827"/>
    <path d="M349.23,99.82V127H331.77V78.71h16.57v9.17h.51a13.61,13.61,0,0,1,5.58-7.19,18.2,18.2,0,0,1,18.32-.27,15.89,15.89,0,0,1,5.91,6.43,19.73,19.73,0,0,1,2.08,9.33V127H363.27V99.82a7.92,7.92,0,0,0-1.82-5.62,6.57,6.57,0,0,0-5.14-2,7.28,7.28,0,0,0-3.74.92,6.16,6.16,0,0,0-2.46,2.64A9.36,9.36,0,0,0,349.23,99.82Z" transform="translate(-80.74 -57.85)" fill="#111827"/>
  </g>
</svg>
